<svg id="Back_Business_Card" data-name="Back Business Card" xmlns="http://www.w3.org/2000/svg" viewBox="0 0 252 144"><title>A1chemy</title><g id="Map"><rect x="-5.76" y="-5.76" width="263.52" height="155.52"/><text transform="translate(101.71 67.19)" style="font-size:9px;fill:#fff;font-family:AlegreyaSans-Thin, Alegreya Sans;font-weight:200;letter-spacing:0.09998914930555555em">a1che<tspan x="23.47" y="0" style="letter-spacing:0.07600911458333333em">m</tspan><tspan x="31.25" y="0">y@gmail</tspan><tspan x="67.82" y="0" style="letter-spacing:0.039008246527777776em">.</tspan><tspan x="70.24" y="0" style="letter-spacing:0.10004340277777778em">c</tspan><tspan x="74.62" y="0" style="letter-spacing:0.0849609375em">o</tspan><tspan x="79.77" y="0" style="letter-spacing:0.10004340277777778em">m</tspan></text><text transform="translate(96.26 98.59)" style="font-size:12px;fill:#fff;font-family:AlegreyaSans-ThinItalic, Alegreya Sans;font-weight:200;font-style:italic"><tspan style="letter-spacing:0.024983723958333332em">A1CHEMY DES</tspan><tspan x="66.38" y="0">I</tspan><tspan x="69.2" y="0" style="letter-spacing:0.0250244140625em">GN</tspan></text><text transform="translate(96.26 112.89)" style="font-size:12px;fill:#fff;font-family:YuGothic-Light, Yu Gothic;font-weight:300;letter-spacing:0.19999186197916666em">煉金術事務所</text><text transform="translate(101.71 51.27)" style="font-size:9px;fill:#fff;font-family:AlegreyaSans-Light, Alegreya Sans;font-weight:300;letter-spacing:0.09998914930555555em">0975093158</text><line x1="96.26" y1="42.82" x2="96.26" y2="68.83" style="fill:none;stroke:#e1c857;stroke-miterlimit:10;stroke-width:0.75px"/><text transform="translate(204.77 131.13)" style="font-size:9px;fill:#fff;font-family:AdobeMingStd-Light-B5pc-H, Adobe Ming Std">。。。</text></g><path d="M47.76,83a1.52,1.52,0,0,1-1.51-1.51v-.09h3v.09A1.52,1.52,0,0,1,47.76,83Zm-1.33-1.42a1.33,1.33,0,0,0,2.66,0Z" style="fill:#fff"/><path d="M63.11,90.85H32.41l15.35-26.6Zm-30.4-.18h30.1L47.76,64.61Z" style="fill:#fff"/><path d="M47.76,90.59l-7.53-13H55.28ZM40.54,77.73l7.22,12.51L55,77.73Z" style="fill:#fff"/><path d="M47.76,86.41A4.43,4.43,0,1,1,52.18,82,4.44,4.44,0,0,1,47.76,86.41Zm0-8.68A4.25,4.25,0,1,0,52,82,4.26,4.26,0,0,0,47.76,77.73Z" style="fill:#fff"/><path d="M52.79,86.34a1.52,1.52,0,0,1-1.51-1.51v-.09h3v.09A1.52,1.52,0,0,1,52.79,86.34Zm-1.33-1.42a1.33,1.33,0,0,0,2.66,0Z" style="fill:#e1c857"/><path d="M68.14,94.23H37.44L52.79,67.64Zm-30.4-.17h30.1L52.79,68Z" style="fill:#e1c857"/><path d="M52.79,94l-7.53-13H60.32ZM45.57,81.12l7.22,12.5L60,81.12Z" style="fill:#e1c857"/><path d="M52.79,89.79a4.43,4.43,0,1,1,4.43-4.42A4.43,4.43,0,0,1,52.79,89.79Zm0-8.67A4.25,4.25,0,1,0,57,85.37,4.25,4.25,0,0,0,52.79,81.12Z" style="fill:#e1c857"/><path d="M42.6,86.25a1.5,1.5,0,0,1-1.5-1.51v-.08h3v.08A1.51,1.51,0,0,1,42.6,86.25Zm-1.33-1.42a1.34,1.34,0,0,0,1.33,1.25,1.33,1.33,0,0,0,1.33-1.25Z" style="fill:#be820e"/><path d="M58,94.14H27.25L42.6,67.55ZM27.55,94h30.1L42.6,67.9Z" style="fill:#be820e"/><path d="M42.6,93.89l-7.52-13H50.13ZM35.38,81,42.6,93.54,49.82,81Z" style="fill:#be820e"/><path d="M42.6,89.7A4.43,4.43,0,1,1,47,85.28,4.42,4.42,0,0,1,42.6,89.7Zm0-8.67a4.25,4.25,0,1,0,4.25,4.25A4.26,4.26,0,0,0,42.6,81Z" style="fill:#be820e"/></svg>